HIERARCHY
ROOT Hips
{
	OFFSET -0.001795 -0.223333 0.028219
	CHANNELS 6 Xposition Yposition Zposition Zrotation Yrotation Xrotation 
	JOINT LeftUpLeg
	{
		OFFSET 0.069520 -0.091406 -0.006815
		CHANNELS 3 Zrotation Yrotation Xrotation
		JOINT LeftLeg
		{
			OFFSET 0.034277 -0.375199 -0.004496
			CHANNELS 3 Zrotation Yrotation Xrotation
			JOINT LeftFoot
			{
				OFFSET -0.013596 -0.397961 -0.043693
				CHANNELS 3 Zrotation Yrotation Xrotation
				JOINT LeftToe
				{
					OFFSET 0.026358 -0.055791 0.119288
					CHANNELS 3 Zrotation Yrotation Xrotation
					End Site
					{
						OFFSET 0.000000 0.000000 0.000000
					}
				}
			}
		}
	}
	JOINT RightUpLeg
	{
		OFFSET -0.067670 -0.090522 -0.004320
		CHANNELS 3 Zrotation Yrotation Xrotation
		JOINT RightLeg
		{
			OFFSET -0.038290 -0.382569 -0.008850
			CHANNELS 3 Zrotation Yrotation Xrotation
			JOINT RightFoot
			{
				OFFSET 0.015774 -0.398415 -0.042312
				CHANNELS 3 Zrotation Yrotation Xrotation
				JOINT RightToe
				{
					OFFSET -0.025372 -0.048144 0.123348
					CHANNELS 3 Zrotation Yrotation Xrotation
					End Site
					{
						OFFSET 0.000000 0.000000 0.000000
					}
				}
			}
		}
	}
	JOINT Spine
	{
		OFFSET -0.002533 0.108963 -0.026696
		CHANNELS 3 Zrotation Yrotation Xrotation
		JOINT Spine1
		{
			OFFSET 0.005487 0.135180 0.001092
			CHANNELS 3 Zrotation Yrotation Xrotation
			JOINT Spine2
			{
				OFFSET 0.001457 0.052922 0.025425
				CHANNELS 3 Zrotation Yrotation Xrotation
				JOINT Neck
				{
					OFFSET -0.002778 0.213870 -0.042857
					CHANNELS 3 Zrotation Yrotation Xrotation
					JOINT Head
					{
						OFFSET 0.005152 0.064970 0.051349
						CHANNELS 3 Zrotation Yrotation Xrotation
						End Site
						{
							OFFSET 0.000000 0.000000 0.000000
						}
					}
				}
				JOINT LeftShoulder
				{
					OFFSET 0.078845 0.121749 -0.034090
					CHANNELS 3 Zrotation Yrotation Xrotation
					JOINT LeftArm
					{
						OFFSET 0.090977 0.030469 -0.008868
						CHANNELS 3 Zrotation Yrotation Xrotation
						JOINT LeftForeArm
						{
							OFFSET 0.259612 -0.012772 -0.027456
							CHANNELS 3 Zrotation Yrotation Xrotation
							JOINT LeftHand
							{
								OFFSET 0.249234 0.008986 -0.001171
								CHANNELS 3 Zrotation Yrotation Xrotation
								End Site
								{
									OFFSET 0.000000 0.000000 0.000000
								}
							}
						}
					}
				}
				JOINT RightShoulder
				{
					OFFSET -0.081759 0.118833 -0.038615
					CHANNELS 3 Zrotation Yrotation Xrotation
					JOINT RightArm
					{
						OFFSET -0.096012 0.032551 -0.009143
						CHANNELS 3 Zrotation Yrotation Xrotation
						JOINT RightForeArm
						{
							OFFSET -0.253742 -0.013329 -0.021401
							CHANNELS 3 Zrotation Yrotation Xrotation
							JOINT RightHand
							{
								OFFSET -0.255298 0.007772 -0.005559
								CHANNELS 3 Zrotation Yrotation Xrotation
								End Site
								{
									OFFSET 0.000000 0.000000 0.000000
								}
							}
						}
					}
				}
			}
		}
	}
}
MOTION
Frames: 17
Frame Time: 0.050000
0.000000 0.970215 0.000000 -2.811500 -25.204428 5.286301 5.355779 0.123637 -1.638823 1.835097 -0.141836 -2.938827 15.635502 22.237881 39.884238 0.000000 0.000000 0.000000 -2.834628 0.702859 -6.694925 3.385044 -0.094461 1.953223 -2.731358 -17.271743 28.919607 0.000000 0.000000 0.000000 5.781596 -0.226881 1.482632 -9.015326 2.371695 -25.337424 -4.675764 13.368020 20.618850 9.916276 -4.685449 -23.022930 0.000000 0.000000 0.000000 0.731959 -17.378573 6.048807 -46.911814 -50.521898 14.370986 107.850088 -17.037671 -15.872783 0.000000 0.000000 0.000000 -1.790154 11.701817 3.856989 83.393634 75.521553 57.455379 -100.232004 58.036274 -60.326469 0.000000 0.000000 0.000000 
-0.000261 0.966717 0.000953 -2.986354 -26.816094 6.122957 6.443870 0.208943 -2.007273 -0.021274 0.105403 -3.452750 17.320284 23.537294 41.505286 0.000000 0.000000 0.000000 -2.415355 0.808609 -7.892846 2.240274 -0.020473 1.864894 -1.506931 -16.279093 29.297970 0.000000 0.000000 0.000000 5.746797 -0.132854 0.418908 -8.773406 2.291064 -26.533600 -5.000438 14.790886 21.297676 10.713240 -4.575481 -26.408663 0.000000 0.000000 0.000000 3.049153 -16.104883 5.267947 -48.520402 -51.179072 15.409885 109.255588 -11.887018 -9.444619 0.000000 0.000000 0.000000 -3.576442 13.386216 4.283908 95.752622 78.123522 71.875025 -99.277624 55.971188 -57.079083 0.000000 0.000000 0.000000 
-0.000099 0.964747 0.001850 -2.867867 -25.321804 5.816285 6.580898 0.157898 -3.422385 -0.347513 0.089868 -1.166611 17.513741 23.977781 40.860123 0.000000 0.000000 0.000000 -1.744180 0.671755 -6.725355 0.730554 0.075968 2.310947 -0.822439 -14.246561 24.790147 0.000000 0.000000 0.000000 5.664073 -0.232067 1.513433 -10.272211 2.681149 -27.929201 -4.223119 12.537693 21.780957 10.300426 -5.025310 -23.650686 0.000000 0.000000 0.000000 2.040661 -13.900511 4.694361 -55.936505 -53.205930 20.340530 117.670684 -9.325619 -6.348060 0.000000 0.000000 0.000000 -4.304931 12.656277 4.065607 126.923601 78.038176 103.071696 -97.178921 55.258814 -54.439973 0.000000 0.000000 0.000000 
0.000086 0.966047 0.002826 -3.014560 -24.801177 6.854643 6.557519 0.107790 -4.488247 -0.021264 0.044387 -1.283260 17.188781 23.640914 40.980313 0.000000 0.000000 0.000000 -1.297480 0.770551 -7.784864 0.628810 0.067061 1.979920 -2.166022 -16.297224 26.564943 0.000000 0.000000 0.000000 6.255905 -0.183613 0.764248 -11.507746 2.983242 -28.064877 -5.015785 13.826586 21.681666 11.548765 -5.433824 -24.220212 0.000000 0.000000 0.000000 2.408555 -12.828448 4.281034 -59.021527 -52.834825 21.278426 122.325577 -10.174017 -9.628873 0.000000 0.000000 0.000000 -4.490819 12.513951 3.976458 147.230991 76.807907 126.332948 -94.870561 52.586789 -49.496336 0.000000 0.000000 0.000000 
0.000621 0.967484 0.004061 -2.566276 -23.057386 6.619284 5.755203 -0.022024 -5.517772 0.759517 -0.105883 0.265131 15.945064 22.736781 39.639118 0.000000 0.000000 0.000000 -1.027454 0.723339 -7.386943 -0.161637 0.122556 2.084568 -3.462205 -17.608094 26.602893 0.000000 0.000000 0.000000 5.793046 -0.208614 1.048324 -12.656203 3.292541 -27.299228 -4.998566 14.561086 21.647081 12.757403 -5.832541 -24.503620 0.000000 0.000000 0.000000 1.999272 -12.195917 4.101610 -61.438825 -51.907209 21.291378 127.071054 -10.727363 -13.050422 0.000000 0.000000 0.000000 -5.114663 12.338735 3.834658 160.677621 73.035450 141.981300 -95.651820 49.069666 -46.112427 0.000000 0.000000 0.000000 
0.001951 0.968305 0.005463 -2.422950 -21.356994 6.478216 5.483594 -0.090165 -6.202995 0.840666 -0.136117 1.026513 15.648642 22.722307 38.987383 0.000000 0.000000 0.000000 -1.218776 0.658093 -6.705307 -0.214918 0.105180 1.714257 -3.668211 -17.642522 26.854499 0.000000 0.000000 0.000000 5.810893 -0.246649 1.435941 -13.699695 3.542588 -27.878353 -4.513953 15.767227 22.796469 14.511934 -6.025680 -27.220376 0.000000 0.000000 0.000000 2.527179 -11.168782 3.727887 -62.839848 -50.994453 20.589240 129.106896 -13.192302 -19.389725 0.000000 0.000000 0.000000 -6.720528 12.224432 3.553290 169.839558 70.957998 155.409789 -94.278318 44.762300 -40.739890 0.000000 0.000000 0.000000 
0.004371 0.968825 0.006970 -2.159846 -19.748162 6.261091 4.817763 -0.180920 -6.428583 1.310371 -0.218422 1.425719 14.810232 22.242800 37.227983 0.000000 0.000000 0.000000 -1.012387 0.610697 -6.270472 -1.018485 0.163873 1.658956 -4.557389 -18.552241 27.394708 0.000000 0.000000 0.000000 5.853402 -0.287468 1.868714 -14.459334 3.764516 -27.393447 -4.285257 16.785883 23.283181 15.203154 -5.975741 -28.017799 0.000000 0.000000 0.000000 2.075920 -11.323943 3.793888 -63.666504 -50.159076 19.728337 130.325274 -13.533772 -21.670467 0.000000 0.000000 0.000000 -7.816464 12.845265 3.475149 175.606648 68.917165 165.108870 -91.291647 40.309598 -34.739697 0.000000 0.000000 0.000000 
0.007638 0.968549 0.008272 -1.810132 -18.330766 5.784234 4.043598 -0.255435 -6.245346 1.230681 -0.210148 1.528775 15.210277 23.058050 35.497478 0.000000 0.000000 0.000000 -1.467440 0.578602 -5.830185 -1.035748 0.187210 2.013292 -5.208352 -19.135579 27.644547 0.000000 0.000000 0.000000 5.886761 -0.292838 1.965392 -14.781009 3.883049 -26.903328 -3.797182 17.719645 23.984530 16.167731 -5.908062 -29.730613 0.000000 0.000000 0.000000 1.583106 -11.323238 3.790626 -62.642328 -50.165584 18.672195 128.958263 -14.294087 -23.478178 0.000000 0.000000 0.000000 -8.908151 13.385800 3.328256 178.107612 67.617256 170.373791 -87.050687 37.482045 -30.165430 0.000000 0.000000 0.000000 
0.011023 0.968539 0.008880 -1.557556 -17.244173 5.601165 3.627306 -0.307680 -6.440142 1.182858 -0.205641 1.604959 14.941488 22.973317 35.012136 0.000000 0.000000 0.000000 -1.730532 0.587146 -5.864847 -1.118351 0.217385 2.376586 -6.122284 -20.130684 28.416546 0.000000 0.000000 0.000000 5.880563 -0.314604 2.216854 -14.907175 3.956606 -26.418970 -3.726247 18.579403 24.011621 16.986552 -6.073547 -29.992856 0.000000 0.000000 0.000000 1.395983 -12.309505 4.086930 -61.324899 -50.949645 18.178284 126.054899 -14.377386 -23.217272 0.000000 0.000000 0.000000 -9.220083 14.706981 3.527421 179.684423 67.741712 174.214428 -80.123969 34.252199 -24.594810 0.000000 0.000000 0.000000 
0.014030 0.968239 0.008511 -1.310334 -16.474038 5.206543 2.944131 -0.363547 -6.413435 1.276303 -0.219303 1.569476 15.784519 23.988025 35.100379 0.000000 0.000000 0.000000 -2.179071 0.550105 -5.347604 -1.170171 0.235687 2.581860 -5.757227 -19.505179 27.554387 0.000000 0.000000 0.000000 5.831378 -0.321848 2.360073 -14.950480 3.993682 -26.161782 -3.497380 18.643580 24.518620 17.568815 -6.088481 -31.103211 0.000000 0.000000 0.000000 1.462262 -12.776682 4.228103 -59.124179 -51.793350 17.548819 123.162105 -15.160497 -23.581365 0.000000 0.000000 0.000000 -9.741060 15.753099 3.651125 -179.144924 67.381061 176.532951 -74.995327 31.450386 -20.655606 0.000000 0.000000 0.000000 
0.016606 0.968183 0.007145 -1.115170 -16.111649 5.283322 2.860894 -0.387059 -6.654906 1.086943 -0.187941 1.449792 15.108405 23.351758 34.755623 0.000000 0.000000 0.000000 -2.447753 0.580717 -5.636068 -1.057255 0.251877 3.016506 -6.063422 -19.760010 26.856448 0.000000 0.000000 0.000000 5.428901 -0.343592 2.723848 -14.873462 3.974932 -26.131571 -3.298673 18.515639 24.270121 17.879434 -6.173287 -31.256895 0.000000 0.000000 0.000000 1.996621 -13.502488 4.452494 -56.887392 -52.377641 16.917453 119.149539 -14.495861 -21.112223 0.000000 0.000000 0.000000 -9.717164 16.487213 3.861404 179.765548 66.871920 174.910470 -69.642115 29.836812 -17.755994 0.000000 0.000000 0.000000 
0.018838 0.968116 0.005210 -1.186683 -16.185272 5.356719 3.003531 -0.390399 -6.951041 0.871798 -0.160762 1.634080 14.969547 23.199608 34.643446 0.000000 0.000000 0.000000 -2.519762 0.596153 -5.793692 -0.746562 0.229267 3.153777 -6.274310 -19.959463 26.138250 0.000000 0.000000 0.000000 5.324542 -0.343301 2.748564 -14.412383 3.854600 -26.109910 -3.010091 18.936171 24.663611 18.341573 -6.264553 -31.818544 0.000000 0.000000 0.000000 2.515351 -13.891388 4.568404 -54.832086 -52.801345 16.113622 115.678111 -14.945925 -20.671697 0.000000 0.000000 0.000000 -8.972684 17.279710 4.190296 175.340813 66.891714 167.986354 -64.178253 30.990009 -16.625957 0.000000 0.000000 0.000000 
0.020825 0.968156 0.003242 -1.275101 -16.313219 5.391580 2.981805 -0.392582 -6.980974 1.035197 -0.177646 1.358027 14.879709 23.051380 34.952331 0.000000 0.000000 0.000000 -2.576579 0.588276 -5.679805 -0.383134 0.176634 2.858514 -6.499920 -20.183974 25.503131 0.000000 0.000000 0.000000 5.186345 -0.353253 2.924360 -14.123343 3.793256 -25.882035 -2.710076 19.017545 24.788026 18.608498 -6.317626 -32.211381 0.000000 0.000000 0.000000 2.766243 -14.454582 4.736737 -52.209998 -52.403944 14.769430 112.746416 -15.705428 -20.850378 0.000000 0.000000 0.000000 -7.947516 18.271983 4.682661 169.599559 67.336128 158.899835 -59.401950 33.315109 -16.227303 0.000000 0.000000 0.000000 
0.022329 0.968142 0.001872 -1.402431 -16.411042 5.454535 3.328103 -0.364921 -7.013403 0.591232 -0.109176 1.254340 14.766474 22.936698 34.729366 0.000000 0.000000 0.000000 -2.428698 0.576781 -5.580567 -0.204863 0.142119 2.528328 -6.933472 -20.695961 25.160854 0.000000 0.000000 0.000000 5.077066 -0.330164 2.684929 -13.936906 3.759097 -25.594613 -2.481683 18.656504 24.768612 18.794036 -6.478405 -32.199032 0.000000 0.000000 0.000000 2.779504 -14.712402 4.814935 -49.826170 -52.155584 13.775762 110.179485 -16.811282 -21.355503 0.000000 0.000000 0.000000 -7.090871 19.368298 5.206324 163.113030 68.359079 148.998793 -55.551865 36.971409 -16.639352 0.000000 0.000000 0.000000 
0.023424 0.967563 0.001148 -1.554817 -16.223724 5.521870 3.258351 -0.367476 -6.900940 0.920866 -0.146814 0.857111 14.736796 22.955946 34.465378 0.000000 0.000000 0.000000 -2.415900 0.566539 -5.464024 -0.101291 0.106254 2.017937 -7.029450 -20.828872 25.696067 0.000000 0.000000 0.000000 5.216601 -0.310737 2.380960 -13.809933 3.728777 -25.546557 -2.027139 18.691166 25.185368 18.615593 -6.359025 -32.300302 0.000000 0.000000 0.000000 2.810965 -15.384745 5.015706 -47.675067 -51.685218 12.627245 110.264817 -17.080935 -21.963678 0.000000 0.000000 0.000000 -5.892144 20.017465 5.657538 155.303157 69.601435 138.353352 -52.958239 40.676537 -17.332055 0.000000 0.000000 0.000000 
0.024082 0.967266 0.000745 -1.790079 -16.626158 5.645549 3.513066 -0.339602 -6.819515 0.803867 -0.124569 0.664692 15.015732 23.191458 34.547948 0.000000 0.000000 0.000000 -2.441890 0.545429 -5.186812 -0.047160 0.075818 1.482917 -6.054569 -19.620958 25.065012 0.000000 0.000000 0.000000 5.246715 -0.284227 2.045170 -13.605259 3.686529 -25.270663 -2.057054 18.391553 24.926423 18.010371 -6.207646 -31.804429 0.000000 0.000000 0.000000 2.605682 -15.343007 5.011377 -45.555388 -51.406182 11.819912 109.589405 -16.744803 -21.200231 0.000000 0.000000 0.000000 -5.751431 20.288018 5.787953 152.680514 70.149807 134.720721 -50.780562 42.340763 -17.217758 0.000000 0.000000 0.000000 
0.024407 0.967497 0.000364 -1.939042 -17.004132 5.556070 3.537384 -0.313190 -6.347869 0.960800 -0.131871 0.157133 15.203246 23.331369 34.770176 0.000000 0.000000 0.000000 -2.533043 0.530424 -4.964165 0.082508 0.058202 1.324639 -5.321557 -18.708053 24.765913 0.000000 0.000000 0.000000 5.414398 -0.263914 1.776885 -13.702102 3.735629 -24.933677 -2.014870 18.381682 24.894905 17.849832 -6.152522 -31.782949 0.000000 0.000000 0.000000 2.938267 -15.834937 5.149151 -43.298427 -51.557337 11.045648 110.278729 -14.970146 -19.219440 0.000000 0.000000 0.000000 -6.113724 20.516069 5.770528 153.224082 72.252890 136.984523 -50.333990 41.519907 -16.728273 0.000000 0.000000 0.000000 
